<svg xmlns="http://www.w3.org/2000/svg" viewBox="0 0 170 310"><path d="M86 0v106M86 104c-23 18-36 43-43 87M87 111c31 17 46 54 44 116M43 189c16 17 23 47 19 95M130 224c-10 21-8 47-5 76" fill="none" stroke="#60795e" stroke-width="4"/><g fill="#aebd91" stroke="#728468" stroke-width="3"><path d="M78 119c-25-2-32-18-31-30 22-1 33 12 31 30Z"/><path d="M98 132c3-23 20-28 31-25-2 20-16 29-31 25Z"/><path d="M59 173c-25-5-30-22-27-34 22 2 31 17 27 34Z"/><path d="M119 187c2-24 19-30 31-27-1 22-16 31-31 27Z"/><path d="M53 227c-24-5-30-21-26-33 21 1 31 15 26 33Z"/><path d="M128 250c1-22 17-29 28-26 0 20-14 29-28 26Z"/><path d="M55 276c-20-4-25-18-23-28 18 2 26 13 23 28Z"/></g></svg>
